<svg xmlns="http://www.w3.org/2000/svg" xmlns:xlink="http://www.w3.org/1999/xlink" width="200" zoomAndPan="magnify" viewBox="0 0 150 149.999998" height="200" preserveAspectRatio="xMidYMid meet" version="1.0"><defs><clipPath id="652be27757"><path d="M 22.5 23 L 127.570312 23 L 127.570312 127.570312 L 22.5 127.570312 Z M 22.5 23 " clip-rule="nonzero"/></clipPath><clipPath id="bc64e410ce"><path d="M 38.105469 57.839844 L 47.140625 57.839844 L 47.140625 95.542969 L 38.105469 95.542969 Z M 38.105469 57.839844 " clip-rule="nonzero"/></clipPath><clipPath id="2c17a7a95c"><path d="M 46.9375 57.839844 L 55 57.839844 L 55 73.171875 L 46.9375 73.171875 Z M 46.9375 57.839844 " clip-rule="nonzero"/></clipPath><clipPath id="635ab91a1c"><path d="M 47 72.089844 L 60.824219 72.089844 L 60.824219 95.714844 L 47 95.714844 Z M 47 72.089844 " clip-rule="nonzero"/></clipPath><clipPath id="a4e3b10f59"><path d="M 63.519531 57.839844 L 72.550781 57.839844 L 72.550781 95.542969 L 63.519531 95.542969 Z M 63.519531 57.839844 " clip-rule="nonzero"/></clipPath><clipPath id="20bf32891a"><path d="M 71.910156 57.839844 L 85.734375 57.839844 L 85.734375 81.46875 L 71.910156 81.46875 Z M 71.910156 57.839844 " clip-rule="nonzero"/></clipPath><clipPath id="cc99302531"><path d="M 88.5 57.90625 L 110.871094 57.90625 L 110.871094 95.613281 L 88.5 95.613281 Z M 88.5 57.90625 " clip-rule="nonzero"/></clipPath></defs><g clip-path="url(#652be27757)"><path fill="#facc15" d="M 75 127.886719 C 73.136719 127.886719 71.351562 127.53125 69.632812 126.8125 C 67.917969 126.09375 66.40625 125.074219 65.101562 123.75 L 26.976562 85.648438 C 26.328125 85 25.746094 84.292969 25.234375 83.527344 C 24.722656 82.761719 24.292969 81.953125 23.9375 81.105469 C 23.585938 80.253906 23.320312 79.378906 23.140625 78.476562 C 22.960938 77.574219 22.871094 76.664062 22.871094 75.746094 C 22.871094 74.824219 22.960938 73.914062 23.140625 73.011719 C 23.320312 72.109375 23.585938 71.234375 23.9375 70.382812 C 24.292969 69.535156 24.722656 68.726562 25.234375 67.960938 C 25.746094 67.199219 26.328125 66.492188 26.976562 65.839844 L 65.09375 27.726562 C 65.765625 27.121094 66.492188 26.582031 67.265625 26.109375 C 68.039062 25.636719 68.847656 25.242188 69.695312 24.917969 C 70.539062 24.59375 71.410156 24.347656 72.300781 24.183594 C 73.191406 24.019531 74.089844 23.9375 74.996094 23.9375 C 75.902344 23.9375 76.800781 24.019531 77.691406 24.183594 C 78.582031 24.347656 79.453125 24.59375 80.296875 24.917969 C 81.144531 25.242188 81.953125 25.636719 82.726562 26.109375 C 83.5 26.582031 84.226562 27.121094 84.898438 27.726562 L 123.015625 65.839844 C 123.667969 66.492188 124.246094 67.199219 124.757812 67.960938 C 125.269531 68.726562 125.703125 69.535156 126.054688 70.382812 C 126.40625 71.234375 126.675781 72.109375 126.855469 73.011719 C 127.035156 73.914062 127.125 74.824219 127.125 75.746094 C 127.125 76.664062 127.035156 77.574219 126.855469 78.476562 C 126.675781 79.378906 126.40625 80.257812 126.054688 81.105469 C 125.703125 81.957031 125.269531 82.761719 124.757812 83.527344 C 124.246094 84.292969 123.667969 85 123.015625 85.648438 L 84.898438 123.75 C 83.59375 125.074219 82.082031 126.09375 80.363281 126.8125 C 78.648438 127.527344 76.859375 127.886719 75 127.886719 Z M 75 127.886719 " fill-opacity="1" fill-rule="nonzero"/></g><g clip-path="url(#bc64e410ce)"><path fill="#38bdf8" d="M 38.105469 57.839844 L 47.140625 57.839844 L 47.140625 95.5625 L 38.105469 95.5625 Z M 38.105469 57.839844 " fill-opacity="1" fill-rule="nonzero"/></g><g clip-path="url(#2c17a7a95c)"><path fill="#38bdf8" d="M 46.894531 73.289062 L 46.894531 57.839844 C 49.652344 57.90625 51.859375 58.96875 53.363281 61.238281 C 55.128906 63.894531 55.222656 66.710938 53.625 69.464844 C 52.164062 71.984375 49.863281 73.183594 46.894531 73.292969 Z M 46.894531 73.289062 " fill-opacity="1" fill-rule="nonzero"/></g><g clip-path="url(#635ab91a1c)"><path fill="#38bdf8" d="M 49.128906 95.601562 L 47.292969 95.601562 C 47.179688 95.601562 47.085938 95.5625 47.007812 95.484375 C 46.929688 95.40625 46.890625 95.308594 46.890625 95.199219 L 46.890625 72.5 C 46.890625 72.386719 46.929688 72.292969 47.007812 72.214844 C 47.085938 72.136719 47.179688 72.097656 47.292969 72.097656 L 49.128906 72.097656 C 49.898438 72.097656 50.664062 72.171875 51.421875 72.324219 C 52.175781 72.472656 52.914062 72.695312 53.625 72.992188 C 54.339844 73.285156 55.015625 73.648438 55.65625 74.078125 C 56.296875 74.507812 56.890625 74.992188 57.4375 75.539062 C 57.984375 76.085938 58.472656 76.679688 58.898438 77.320312 C 59.328125 77.960938 59.691406 78.640625 59.984375 79.351562 C 60.28125 80.066406 60.503906 80.800781 60.65625 81.554688 C 60.804688 82.3125 60.878906 83.078125 60.878906 83.847656 C 60.878906 84.621094 60.804688 85.386719 60.65625 86.140625 C 60.503906 86.898438 60.28125 87.632812 59.984375 88.347656 C 59.691406 89.058594 59.328125 89.738281 58.898438 90.378906 C 58.472656 91.019531 57.984375 91.613281 57.4375 92.160156 C 56.890625 92.703125 56.296875 93.191406 55.65625 93.621094 C 55.015625 94.050781 54.339844 94.410156 53.625 94.707031 C 52.914062 95.003906 52.175781 95.226562 51.421875 95.375 C 50.664062 95.527344 49.898438 95.601562 49.128906 95.601562 Z M 49.128906 95.601562 " fill-opacity="1" fill-rule="nonzero"/></g><g clip-path="url(#a4e3b10f59)"><path fill="#38bdf8" d="M 63.519531 57.839844 L 72.550781 57.839844 L 72.550781 95.5625 L 63.519531 95.5625 Z M 63.519531 57.839844 " fill-opacity="1" fill-rule="nonzero"/></g><g clip-path="url(#20bf32891a)"><path fill="#38bdf8" d="M 74.039062 81.351562 L 72.203125 81.351562 C 72.089844 81.351562 71.996094 81.3125 71.917969 81.234375 C 71.835938 81.15625 71.796875 81.0625 71.800781 80.949219 L 71.800781 58.25 C 71.796875 58.140625 71.835938 58.042969 71.917969 57.964844 C 71.996094 57.886719 72.089844 57.847656 72.203125 57.847656 L 74.039062 57.847656 C 74.808594 57.847656 75.574219 57.921875 76.332031 58.074219 C 77.085938 58.222656 77.820312 58.445312 78.535156 58.742188 C 79.246094 59.039062 79.925781 59.398438 80.566406 59.828125 C 81.207031 60.257812 81.800781 60.746094 82.347656 61.289062 C 82.894531 61.835938 83.378906 62.429688 83.808594 63.070312 C 84.238281 63.710938 84.601562 64.390625 84.894531 65.101562 C 85.191406 65.816406 85.414062 66.550781 85.5625 67.308594 C 85.714844 68.0625 85.789062 68.828125 85.789062 69.601562 C 85.789062 70.371094 85.714844 71.136719 85.5625 71.894531 C 85.414062 72.648438 85.191406 73.382812 84.894531 74.097656 C 84.601562 74.808594 84.238281 75.488281 83.808594 76.128906 C 83.378906 76.769531 82.894531 77.363281 82.347656 77.910156 C 81.800781 78.457031 81.207031 78.941406 80.566406 79.371094 C 79.925781 79.800781 79.246094 80.164062 78.535156 80.457031 C 77.820312 80.753906 77.085938 80.976562 76.332031 81.125 C 75.574219 81.277344 74.808594 81.351562 74.039062 81.351562 Z M 74.039062 81.351562 " fill-opacity="1" fill-rule="nonzero"/></g><g clip-path="url(#cc99302531)"><path fill="#38bdf8" d="M 107.253906 57.917969 L 110.195312 57.917969 C 110.375 57.917969 110.527344 57.980469 110.652344 58.105469 C 110.777344 58.234375 110.839844 58.386719 110.839844 58.566406 L 110.839844 94.953125 C 110.839844 95.132812 110.777344 95.285156 110.652344 95.414062 C 110.527344 95.539062 110.375 95.601562 110.195312 95.601562 L 107.253906 95.601562 C 106.636719 95.601562 106.019531 95.570312 105.40625 95.511719 C 104.792969 95.449219 104.179688 95.359375 103.578125 95.238281 C 102.972656 95.117188 102.375 94.96875 101.78125 94.789062 C 101.191406 94.609375 100.613281 94.402344 100.042969 94.167969 C 99.472656 93.929688 98.914062 93.667969 98.371094 93.375 C 97.828125 93.085938 97.296875 92.769531 96.785156 92.425781 C 96.273438 92.082031 95.777344 91.714844 95.300781 91.324219 C 94.824219 90.933594 94.367188 90.519531 93.929688 90.082031 C 93.492188 89.644531 93.078125 89.1875 92.6875 88.710938 C 92.296875 88.234375 91.929688 87.742188 91.585938 87.226562 C 91.242188 86.714844 90.925781 86.1875 90.636719 85.640625 C 90.34375 85.097656 90.082031 84.539062 89.84375 83.96875 C 89.609375 83.398438 89.402344 82.820312 89.222656 82.230469 C 89.042969 81.636719 88.894531 81.039062 88.773438 80.4375 C 88.652344 79.832031 88.5625 79.222656 88.5 78.605469 C 88.441406 77.992188 88.410156 77.375 88.410156 76.761719 C 88.410156 76.144531 88.441406 75.527344 88.5 74.914062 C 88.5625 74.300781 88.652344 73.6875 88.773438 73.085938 C 88.894531 72.480469 89.042969 71.882812 89.222656 71.289062 C 89.402344 70.699219 89.609375 70.121094 89.84375 69.550781 C 90.082031 68.980469 90.34375 68.421875 90.636719 67.878906 C 90.925781 67.335938 91.242188 66.804688 91.585938 66.292969 C 91.929688 65.78125 92.296875 65.285156 92.6875 64.808594 C 93.078125 64.332031 93.492188 63.875 93.929688 63.4375 C 94.367188 63 94.824219 62.585938 95.300781 62.195312 C 95.777344 61.804688 96.273438 61.4375 96.785156 61.09375 C 97.296875 60.75 97.828125 60.433594 98.371094 60.144531 C 98.914062 59.851562 99.472656 59.589844 100.042969 59.351562 C 100.613281 59.117188 101.191406 58.910156 101.78125 58.730469 C 102.375 58.550781 102.972656 58.402344 103.578125 58.28125 C 104.179688 58.160156 104.792969 58.070312 105.40625 58.007812 C 106.019531 57.949219 106.636719 57.917969 107.253906 57.917969 Z M 107.253906 57.917969 " fill-opacity="1" fill-rule="nonzero"/></g></svg>